<?xml version="1.0" encoding="UTF-8" standalone="no"?>
<!-- Uploaded to: SVG Repo, www.svgrepo.com, Generator: SVG Repo Mixer Tools -->

<svg
   version="1.1"
   id="Icons"
   viewBox="0 0 32 32"
   xml:space="preserve"
   sodipodi:docname="QuizzEngine_logo.svg"
   inkscape:version="1.1.2 (0a00cf5339, 2022-02-04)"
   xmlns:inkscape="http://www.inkscape.org/namespaces/inkscape"
   xmlns:sodipodi="http://sodipodi.sourceforge.net/DTD/sodipodi-0.dtd"
   xmlns="http://www.w3.org/2000/svg"
   xmlns:svg="http://www.w3.org/2000/svg"><defs
   id="defs69" /><sodipodi:namedview
   id="namedview67"
   pagecolor="#ffffff"
   bordercolor="#666666"
   borderopacity="1.0"
   inkscape:pageshadow="2"
   inkscape:pageopacity="0.0"
   inkscape:pagecheckerboard="0"
   showgrid="false"
   inkscape:zoom="25.21875"
   inkscape:cx="10.864932"
   inkscape:cy="12.827757"
   inkscape:window-width="1654"
   inkscape:window-height="946"
   inkscape:window-x="132"
   inkscape:window-y="124"
   inkscape:window-maximized="0"
   inkscape:current-layer="layer1" />
<style
   type="text/css"
   id="style60">
	.st0{fill:none;stroke:#000000;stroke-width:2;stroke-linecap:round;stroke-linejoin:round;stroke-miterlimit:10;}
	.st1{fill:none;stroke:#000000;stroke-width:2;stroke-linejoin:round;stroke-miterlimit:10;}
	.st2{fill:none;stroke:#000000;stroke-width:2;stroke-linecap:round;stroke-miterlimit:10;}
</style>
<path
   class="st0"
   d="M28.7,13.4c-0.3-1.7-1-3.2-1.9-4.6c-1.5,0.8-3,0.9-3.8,0.1c-0.8-0.8-0.7-2.2,0.1-3.8c-1.4-0.9-2.9-1.6-4.6-1.9  C18.1,4.9,17.1,6,16,6s-2.1-1.1-2.6-2.7c-1.7,0.3-3.2,1-4.6,1.9c0.8,1.5,0.9,3,0.1,3.8S6.7,9.6,5.2,8.8c-0.9,1.4-1.6,2.9-1.9,4.6  C4.9,13.9,6,14.9,6,16s-1.1,2.1-2.7,2.6c0.3,1.7,1,3.2,1.9,4.6c1.5-0.8,3-0.9,3.8-0.1s0.7,2.2-0.1,3.8c1.4,0.9,2.9,1.6,4.6,1.9  c0.5-1.6,1.5-2.7,2.6-2.7s2.1,1.1,2.6,2.7c1.7-0.3,3.2-1,4.6-1.9c-0.8-1.5-0.9-3-0.1-3.8c0.8-0.8,2.2-0.7,3.8,0.1  c0.9-1.4,1.6-2.9,1.9-4.6C27.1,18.1,26,17.1,26,16S27.1,13.9,28.7,13.4z"
   id="path62" />
<circle
   class="st0"
   cx="16"
   cy="16"
   r="3"
   id="circle64" />
<g
   inkscape:groupmode="layer"
   id="layer1"
   inkscape:label="Question"
   style="display:inline"><text
     xml:space="preserve"
     style="font-style:normal;font-weight:normal;font-size:40px;line-height:1.25;font-family:sans-serif;letter-spacing:0px;word-spacing:0px;fill:#000000;fill-opacity:1;stroke:none"
     x="3.4339907"
     y="4.8688188"
     id="text18743"><tspan
       sodipodi:role="line"
       id="tspan18741"
       x="3.4339907"
       y="4.8688188"></tspan></text><text
     xml:space="preserve"
     style="font-style:normal;font-weight:normal;font-size:32px;line-height:1.25;font-family:sans-serif;letter-spacing:0px;word-spacing:0px;fill:#0000f8;fill-opacity:1;stroke:none"
     x="7.9316006"
     y="27.684607"
     id="text31709"><tspan
       sodipodi:role="line"
       id="tspan31707"
       x="7.9316006"
       y="27.684607">?</tspan></text></g></svg>
